<!-- Versión inline del corazón - Copia este código directamente en tu HTML -->
<svg class="icon icon-heart icon-medium" xmlns="http://www.w3.org/2000/svg" viewBox="0 0 70 70">
  <polygon fill="currentColor" points="17.32 40.05 22.37 40.05 22.37 45.1 27.42 45.1 27.42 50.15 32.47 50.15 32.47 55.2 37.53 55.2 37.53 50.15 42.58 50.15 42.58 45.1 47.63 45.1 47.63 40.05 52.68 40.05 52.68 35 57.73 35 57.73 29.95 57.73 24.9 57.73 19.85 52.68 19.85 52.68 14.8 37.53 14.8 37.53 19.85 32.47 19.85 32.47 14.8 17.32 14.8 17.32 19.85 12.27 19.85 12.27 24.9 12.27 29.95 12.27 35 17.32 35 17.32 40.05"/>
</svg>
