<?xml version="1.0" encoding="UTF-8"?>
<svg id="Capa_1" xmlns="http://www.w3.org/2000/svg" version="1.1" viewBox="0 0 70 70">
  <!-- Generator: Adobe Illustrator 29.6.1, SVG Export Plug-In . SVG Version: 2.1.1 Build 9)  -->
  <defs>
    <style>
      .st0 {
        fill: #fa345e;
      }
    </style>
  </defs>
  <polygon class="st0" points="17.32 40.05 22.37 40.05 22.37 45.1 27.42 45.1 27.42 50.15 32.47 50.15 32.47 55.2 37.53 55.2 37.53 50.15 42.58 50.15 42.58 45.1 47.63 45.1 47.63 40.05 52.68 40.05 52.68 35 57.73 35 57.73 29.95 57.73 24.9 57.73 19.85 52.68 19.85 52.68 14.8 37.53 14.8 37.53 19.85 32.47 19.85 32.47 14.8 17.32 14.8 17.32 19.85 12.27 19.85 12.27 24.9 12.27 29.95 12.27 35 17.32 35 17.32 40.05"/>
</svg>