<svg xmlns="http://www.w3.org/2000/svg" viewBox="0 0 70 70">
  <rect fill="currentColor" x="15.52" y="38.25" width="3.25" height="3.25"/>
  <rect fill="currentColor" x="15.52" y="28.51" width="3.25" height="3.25"/>
  <rect fill="currentColor" x="12.27" y="31.75" width="45.46" height="6.49"/>
  <rect fill="currentColor" x="25.26" y="44.74" width="6.49" height="6.49"/>
  <rect fill="currentColor" x="18.77" y="38.25" width="6.49" height="6.49"/>
  <rect fill="currentColor" x="31.75" y="51.23" width="6.49" height="6.49"/>
  <rect fill="currentColor" x="25.26" y="18.77" width="6.49" height="6.49"/>
  <rect fill="currentColor" x="18.77" y="25.26" width="6.49" height="6.49"/>
  <rect fill="currentColor" x="31.75" y="12.27" width="6.49" height="6.49"/>
  <rect fill="currentColor" x="22.01" y="44.74" width="3.25" height="3.25"/>
  <rect fill="currentColor" x="28.51" y="51.23" width="3.25" height="3.25"/>
  <rect fill="currentColor" x="25.26" y="25.26" width="3.25" height="3.25"/>
  <rect fill="currentColor" x="31.75" y="18.77" width="3.25" height="3.25"/>
  <rect fill="currentColor" x="22.01" y="22.01" width="3.25" height="3.25"/>
  <rect fill="currentColor" x="28.51" y="15.52" width="3.25" height="3.25"/>
  <rect fill="currentColor" x="25.26" y="41.49" width="3.25" height="3.25"/>
  <rect fill="currentColor" x="31.75" y="47.99" width="3.25" height="3.25"/>
</svg>