<svg xmlns="http://www.w3.org/2000/svg" viewBox="0 0 70 70">
  <path fill="currentColor" d="M48.74,8.79v-2.52h-25.17v2.52h-2.52v36.68h2.52v2.52h25.17v-2.52h2.52V8.79h-2.52ZM46.23,42.95h-20.13v-19.56h20.13v19.56ZM46.23,20.87h-20.13v-9.57h20.13v9.57Z"/>
  <rect fill="currentColor" x="28.43" y="26.41" width="4.6" height="2.52"/>
  <rect fill="currentColor" x="33.89" y="26.41" width="4.6" height="2.52"/>
  <rect fill="currentColor" x="39.34" y="26.41" width="4.6" height="2.52"/>
  <rect fill="currentColor" x="28.43" y="29.76" width="4.6" height="2.52"/>
  <rect fill="currentColor" x="33.89" y="29.76" width="4.6" height="2.52"/>
  <rect fill="currentColor" x="39.34" y="29.76" width="4.6" height="2.52"/>
  <rect fill="currentColor" x="28.43" y="32.94" width="4.6" height="2.52"/>
  <rect fill="currentColor" x="33.89" y="32.94" width="4.6" height="2.52"/>
  <rect fill="currentColor" x="28.43" y="36.8" width="15.52" height="2.52"/>
  <rect fill="currentColor" x="39.34" y="32.94" width="4.6" height="2.52"/>
  <path fill="currentColor" d="M26.97,60.84v-13.87h2.41v13.87h2.41v-13.87h4.81v13.87h7.22v-13.87h2.41v16.27h-19.26v-2.41ZM26.97,44.57v2.41h19.26v-2.41h-19.26Z"/>
</svg>