<svg xmlns="http://www.w3.org/2000/svg" viewBox="0 0 70 70">
  <path fill="currentColor" d="M27.71,13.14h-4.86v4.86h-12.15v38.86h48.58V18h-12.15v-4.86h-19.43ZM47.15,22.85h7.29v29.15H15.57v-29.15h12.15v-4.86h14.57v4.86h4.86ZM30.14,27.71h9.72v4.86h-9.72v-4.86ZM39.86,42.29h-9.72v4.86h9.72v-4.86h4.86v-9.72h-4.86v9.72ZM25.28,32.57h4.86v9.72h-4.86v-9.72Z"/>
  <rect fill="currentColor" x="20.11" y="15.08" width="4.51" height="4.51"/>
  <rect fill="currentColor" x="27.89" y="30.05" width="4.51" height="4.51"/>
  <rect fill="currentColor" x="37.6" y="30.05" width="4.51" height="4.51"/>
  <rect fill="currentColor" x="27.89" y="39.86" width="4.51" height="4.51"/>
  <rect fill="currentColor" x="37.6" y="39.86" width="4.51" height="4.51"/>
  <rect fill="currentColor" x="45.31" y="15.08" width="4.51" height="4.51"/>
</svg>