<svg xmlns="http://www.w3.org/2000/svg" viewBox="0 0 70 70">
  <path fill="currentColor" d="M29.95,42.58v-2.53h17.68v-2.53h2.53v-2.53h2.53v-12.63h5.05v-5.05H22.37v-2.53h-10.1v2.53h5.05v5.05h2.53v2.53h2.53v10.1h2.53v5.05h-2.53v2.84h-2.53v2.21h-2.53v5.05h7.58v2.53h2.53v-2.53h2.53v2.53h2.53v-2.53h10.1v2.53h2.53v-2.53h2.53v2.53h2.53v-2.53h5.05v-5.05h-27.78v-2.53h2.53ZM27.42,22.37h20.2v12.63h-20.2v-12.63Z"/>
  <rect fill="currentColor" x="27.42" y="52.68" width="2.53" height="2.53"/>
  <rect fill="currentColor" x="45.1" y="52.68" width="2.53" height="2.53"/>
  <rect fill="currentColor" x="29.95" y="24.9" width="2.53" height="7.58"/>
  <rect fill="currentColor" x="36.26" y="24.9" width="2.53" height="7.58"/>
  <rect fill="currentColor" x="42.58" y="24.9" width="2.53" height="7.58"/>
</svg>