<svg xmlns="http://www.w3.org/2000/svg" viewBox="0 0 70 70">
  <polygon fill="currentColor" points="50.78 45.1 48.26 45.1 48.26 47.63 45.73 47.63 45.73 50.15 43.21 50.15 43.21 52.68 28.06 52.68 28.06 50.15 26.79 50.15 25.53 50.15 25.53 47.63 24.27 47.63 23 47.63 23 45.1 21.74 45.1 20.48 45.1 20.48 42.58 25.53 42.58 25.53 37.53 10.38 37.53 10.38 42.58 10.38 52.68 15.43 52.68 15.43 47.63 16.69 47.63 16.69 50.15 17.95 50.15 19.22 50.15 19.22 52.68 20.48 52.68 21.74 52.68 21.74 55.2 23 55.2 24.27 55.2 24.27 57.73 25.53 57.73 44.47 57.73 45.73 57.73 45.73 55.2 48.26 55.2 48.26 52.68 50.78 52.68 50.78 50.15 53.31 50.15 53.31 47.63 55.83 47.63 55.83 41.31 50.78 41.31 50.78 45.1"/>
  <polygon fill="currentColor" points="54.57 17.32 54.57 22.37 53.31 22.37 53.31 19.85 52.05 19.85 50.78 19.85 50.78 17.32 49.52 17.32 48.26 17.32 48.26 14.8 47 14.8 45.73 14.8 45.73 12.27 44.47 12.27 25.53 12.27 24.27 12.27 24.27 14.8 21.74 14.8 21.74 17.32 19.22 17.32 19.22 19.85 16.69 19.85 16.69 22.37 14.17 22.37 14.17 28.69 19.22 28.69 19.22 24.9 21.74 24.9 21.74 22.37 24.27 22.37 24.27 19.85 26.79 19.85 26.79 17.32 41.94 17.32 41.94 19.85 43.21 19.85 44.47 19.85 44.47 22.37 45.73 22.37 47 22.37 47 24.9 48.26 24.9 49.52 24.9 49.52 27.42 44.47 27.42 44.47 32.47 59.62 32.47 59.62 27.42 59.62 17.32 54.57 17.32"/>
  <polygon fill="currentColor" points="37.53 19.85 32.47 19.85 32.47 22.37 27.42 22.37 27.42 37.53 32.47 37.53 37.53 37.53 37.53 42.58 32.47 42.58 32.47 40.05 27.42 40.05 27.42 47.63 32.47 47.63 32.47 50.15 37.53 50.15 37.53 47.63 42.58 47.63 42.58 32.47 37.53 32.47 32.47 32.47 32.47 27.42 37.53 27.42 37.53 29.95 42.58 29.95 42.58 22.37 37.53 22.37 37.53 19.85"/>
</svg>