<svg xmlns="http://www.w3.org/2000/svg" viewBox="0 0 70 70">
  <path fill="currentColor" d="M30.52,26.66h-4.09v17.29h0s4.09,0,4.09,0h0s8.95,0,8.95,0h0s4.09,0,4.09,0h0v-17.3h-13.05ZM30.52,30.76h8.95v9.1h-8.95v-9.1Z"/>
  <path fill="currentColor" d="M60.73,29.57v-3.24h-7.56v-3.24h-3.13v-3.13h-3.13v-3.13h-3.33v-7.56h-3.24v7.56h-3.8v-7.56h-3.24v7.56h-3.8v-7.56h-3.24v7.56h-3.15v3.13h-3.13v3.13h-3.13v3.24h-7.56v3.24h7.56v3.8h-7.56v3.25h7.56v3.8h-7.56v3.25h7.56v3.24h3.13v3.13h3.13v3.13h3.15v7.59h3.24v-7.59h3.8v7.59h3.24v-7.59h3.8v7.59h3.24v-7.59h3.33v-3.13h3.13v-3.13h3.13v-3.24h7.56v-3.25h-7.56v-3.8h7.56v-3.25h-7.56v-3.8h7.56ZM45.22,48.34h-20.45v-3.13h-3.13v-20.45h3.13v-3.13h20.45v3.13h3.13v20.45h-3.13v3.13Z"/>
</svg>