<svg xmlns="http://www.w3.org/2000/svg" viewBox="0 0 70 70">
  <path fill="currentColor" d="M57.69,22.3h-2.64v-2.27h-2.64v-2.69h-2.35v-2.27h-2.48v-2.8h-25.14v2.8h-2.48v2.27h-2.35v2.69h-2.64v2.27h-2.64v25.15h2.64v2.68h2.64v2.69h2.35v2.27h2.48v2.64h25.14v-2.64h2.48v-2.27h2.35v-2.69h2.64v-2.68h2.64v-25.15ZM50.08,47.85h-2.64v2.27h-2.35v2.32h-20.18v-2.32h-2.35v-2.27h-2.64v-2.69h-2.32v-20.16h2.32v-2.69h2.64v-2.27h2.35v-2.48h20.18v2.48h2.35v2.27h2.64v2.69h2.32v20.16h-2.32v2.69Z"/>
  <polygon fill="currentColor" points="39.97 29.79 37.49 29.79 37.49 32.27 35 32.27 35 34.76 32.51 34.76 32.51 37.24 30.03 37.24 30.03 34.76 25.06 34.76 25.06 39.73 27.54 39.73 27.54 42.21 30.03 42.21 30.03 44.7 32.51 44.7 32.51 42.21 35 42.21 35 39.73 37.49 39.73 37.49 37.24 39.97 37.24 39.97 34.76 42.46 34.76 42.46 32.27 44.94 32.27 44.94 27.3 39.97 27.3 39.97 29.79"/>
</svg>