<svg xmlns="http://www.w3.org/2000/svg" viewBox="0 0 70 70">
  <path fill="currentColor" d="M57.69,22.3h-2.64v-2.27h-2.64v-2.69h-2.35v-2.27h-2.48v-2.8h-25.14v2.8h-2.48v2.27h-2.35v2.69h-2.64v2.27h-2.64v25.15h2.64v2.68h2.64v2.69h2.35v2.27h2.48v2.64h25.14v-2.64h2.48v-2.27h2.35v-2.69h2.64v-2.68h2.64v-25.15ZM50.08,47.85h-2.64v2.27h-2.35v2.32h-20.18v-2.32h-2.35v-2.27h-2.64v-2.69h-2.32v-20.16h2.32v-2.69h2.64v-2.27h2.35v-2.48h20.18v2.48h2.35v2.27h2.64v2.69h2.32v20.16h-2.32v2.69Z"/>
  <polygon fill="currentColor" points="39.89 27.45 37.3 27.45 37.3 30.04 32.7 30.04 32.7 27.45 30.11 27.45 30.11 25 24.91 25 24.91 30.19 27.51 30.19 27.51 32.64 30.11 32.64 30.11 37.52 27.51 37.52 27.51 39.97 24.91 39.97 24.91 45.16 30.11 45.16 30.11 42.71 32.7 42.71 32.7 39.83 37.3 39.83 37.3 42.71 39.89 42.71 39.89 45.16 45.09 45.16 45.09 39.97 42.49 39.97 42.49 37.52 39.89 37.52 39.89 32.64 42.49 32.64 42.49 30.19 45.09 30.19 45.09 25 39.89 25 39.89 27.45"/>
</svg>