<svg xmlns="http://www.w3.org/2000/svg" viewBox="0 0 70 70">
  <polygon fill="currentColor" points="20.54 55.25 20.54 49.46 17.64 49.46 17.64 46.57 14.75 46.57 14.75 23.43 17.64 23.43 17.64 20.54 20.54 20.54 20.54 17.64 23.43 17.64 23.43 14.75 46.57 14.75 46.57 17.64 49.46 17.64 49.46 20.54 52.36 20.54 52.36 23.43 55.25 23.43 55.25 20.54 55.25 20.54 55.25 14.75 52.36 14.75 52.36 11.86 49.46 11.86 49.46 8.96 20.54 8.96 20.54 11.86 17.64 11.86 17.64 14.75 14.75 14.75 14.75 17.64 11.86 17.64 11.86 20.54 8.96 20.54 8.96 49.46 11.86 49.46 11.86 52.36 14.75 52.36 14.75 55.25 20.54 55.25"/>
  <polygon fill="currentColor" points="58.14 20.54 58.14 17.64 55.25 17.64 55.25 20.54 55.25 49.46 55.25 49.46 55.25 46.57 52.36 46.57 52.36 49.46 49.46 49.46 49.46 52.36 46.57 52.36 46.57 55.25 49.46 55.25 55.25 55.25 55.25 52.36 58.14 52.36 58.14 49.46 61.04 49.46 61.04 20.54 58.14 20.54"/>
  <polygon fill="currentColor" points="20.54 55.25 17.64 55.25 17.64 58.14 20.54 58.14 20.54 61.04 49.46 61.04 49.46 58.14 52.36 58.14 52.36 55.25 49.46 55.25 20.54 55.25"/>
  <rect fill="currentColor" x="20.54" y="52.36" width="2.89" height="2.89"/>
  <path fill="currentColor" d="M39.59,46.57h4.83c.14,0,.25-.11.25-.25v-3.32h2.53c.14,0,.25-.11.25-.25v-15.98c0-.14-.11-.25-.25-.25h-2.54v-2.83c0-.14-.11-.25-.25-.25h-19.03c-.14,0-.25.11-.25.25v2.83h-2.54c-.14,0-.25.11-.25.25v15.98c0,.14.11.25.25.25h2.53v3.32c0,.14.11.25.25.25h4.83c.14,0,.25-.11.25-.25v-3.32h8.88v3.32c0,.14.11.25.25.25ZM39.34,39.37h-8.87v-9.84h8.87v9.84Z"/>
  <rect fill="currentColor" x="31.06" y="36.36" width="1.82" height="1.92"/>
  <rect fill="currentColor" x="36.28" y="36.36" width="1.82" height="1.92"/>
</svg>