<svg xmlns="http://www.w3.org/2000/svg" viewBox="0 0 70 70">
  <rect fill="currentColor" x="31.46" y="13.43" width="6.12" height="3.06"/>
  <rect fill="currentColor" x="31.46" y="10.37" width="6.12" height="3.06"/>
  <rect fill="currentColor" x="28.4" y="16.49" width="3.03" height="4.56"/>
  <rect fill="currentColor" x="25.36" y="16.49" width="3.03" height="4.56"/>
  <rect fill="currentColor" x="37.58" y="16.49" width="3.03" height="4.56"/>
  <rect fill="currentColor" x="40.61" y="16.49" width="3.03" height="4.56"/>
  <rect fill="currentColor" x="25.34" y="21.08" width="3.06" height="6.12"/>
  <rect fill="currentColor" x="22.28" y="21.08" width="3.06" height="6.12"/>
  <rect fill="currentColor" x="22.28" y="27.2" width="3.06" height="6.12"/>
  <rect fill="currentColor" x="19.22" y="27.2" width="3.06" height="6.12"/>
  <rect fill="currentColor" x="43.7" y="27.2" width="3.06" height="6.12"/>
  <rect fill="currentColor" x="46.76" y="27.2" width="3.06" height="6.12"/>
  <rect fill="currentColor" x="19.22" y="33.32" width="3.06" height="6.12"/>
  <rect fill="currentColor" x="16.16" y="33.32" width="3.06" height="6.12"/>
  <rect fill="currentColor" x="46.76" y="33.32" width="3.06" height="6.12"/>
  <rect fill="currentColor" x="49.82" y="33.32" width="3.06" height="6.12"/>
  <rect fill="currentColor" x="16.16" y="39.44" width="3.06" height="6.12"/>
  <rect fill="currentColor" x="13.1" y="39.44" width="3.06" height="6.12"/>
  <rect fill="currentColor" x="49.82" y="39.44" width="3.06" height="6.12"/>
  <rect fill="currentColor" x="52.88" y="39.44" width="3.06" height="6.12"/>
  <rect fill="currentColor" x="13.1" y="45.56" width="3.06" height="6.12"/>
  <rect fill="currentColor" x="10.04" y="45.56" width="3.06" height="6.12"/>
  <rect fill="currentColor" x="10.04" y="50.66" width="48.95" height="4.08"/>
  <rect fill="currentColor" x="10.04" y="54.73" width="48.95" height="2.45"/>
  <rect fill="currentColor" x="52.88" y="45.56" width="3.06" height="6.12"/>
  <rect fill="currentColor" x="55.94" y="45.56" width="3.06" height="6.12"/>
  <rect fill="currentColor" x="40.64" y="21.08" width="3.06" height="6.12"/>
  <rect fill="currentColor" x="43.64" y="21.08" width="3.06" height="6.12"/>
  <rect fill="currentColor" x="32.33" y="42.24" width="4.38" height="4.28"/>
  <rect fill="currentColor" x="32.33" y="25.1" width="4.38" height="12.85"/>
</svg>