<svg xmlns="http://www.w3.org/2000/svg" viewBox="0 0 70 70">
  <polygon fill="currentColor" points="22.37 27.42 17.32 27.42 17.32 32.47 22.37 32.47 22.37 57.73 27.42 57.73 27.42 47.63 32.47 47.63 32.47 57.73 37.53 57.73 37.53 47.63 42.58 47.63 42.58 57.73 47.63 57.73 47.63 47.63 52.68 47.63 52.68 57.73 57.73 57.73 57.73 37.53 52.68 37.53 52.68 32.47 47.63 32.47 42.58 32.47 37.53 32.47 32.47 32.47 32.47 27.42 32.47 22.37 37.53 22.37 37.53 17.32 37.53 12.27 32.47 12.27 32.47 17.32 17.32 17.32 17.32 12.27 12.27 12.27 12.27 17.32 12.27 22.37 22.37 22.37 22.37 27.42"/>
</svg>