<svg xmlns="http://www.w3.org/2000/svg" viewBox="0 0 70 70">
  <rect fill="currentColor" x="24.9" y="24.9" width="5.05" height="5.05"/>
  <rect fill="currentColor" x="40.05" y="24.9" width="5.05" height="5.05"/>
  <path fill="currentColor" d="M55.2,19.85h-2.53v-2.53h-2.53v-2.53h-2.53v-2.53h-25.25v2.53h-2.53v2.53h-2.53v2.53h-2.53v2.53h-2.53v25.25h2.53v2.53h2.53v2.53h2.53v2.53h2.53v2.53h25.25v-2.53h2.53v-2.53h2.53v-2.53h2.53v-2.53h2.53v-25.25h-2.53v-2.53ZM47.63,47.63v2.53h-2.53v2.53h-20.2v-2.53h-2.53v-2.53h-2.53v-2.53h-2.53v-20.2h2.53v-2.53h2.53v-2.53h2.53v-2.53h20.2v2.53h2.53v2.53h2.53v2.53h2.53v20.2h-2.53v2.53h-2.53Z"/>
  <polygon fill="currentColor" points="45.1 37.53 42.58 37.53 42.58 35 27.42 35 27.42 37.53 24.9 37.53 24.9 40.05 22.37 40.05 22.37 45.1 27.42 45.1 27.42 42.58 29.95 42.58 29.95 40.05 40.05 40.05 40.05 42.58 42.58 42.58 42.58 45.1 47.63 45.1 47.63 40.05 45.1 40.05 45.1 37.53"/>
</svg>