<svg xmlns="http://www.w3.org/2000/svg" viewBox="0 0 70 70">
  <rect fill="currentColor" x="24.9" y="24.9" width="5.05" height="5.05"/>
  <rect fill="currentColor" x="40.05" y="24.9" width="5.05" height="5.05"/>
  <path fill="currentColor" d="M55.2,19.85h-2.53v-2.53h-2.53v-2.53h-2.53v-2.53h-25.25v2.53h-2.53v2.53h-2.53v2.53h-2.53v2.53h-2.53v25.25h2.53v2.53h2.53v2.53h2.53v2.53h2.53v2.53h25.25v-2.53h2.53v-2.53h2.53v-2.53h2.53v-2.53h2.53v-25.25h-2.53v-2.53ZM47.63,47.63v2.53h-2.53v2.53h-20.2v-2.53h-2.53v-2.53h-2.53v-2.53h-2.53v-20.2h2.53v-2.53h2.53v-2.53h2.53v-2.53h20.2v2.53h2.53v2.53h2.53v2.53h2.53v20.2h-2.53v2.53h-2.53Z"/>
  <polygon fill="currentColor" points="24.9 45.09 27.42 45.09 27.42 47.62 42.58 47.62 42.58 45.09 45.1 45.09 45.1 42.57 47.63 42.57 47.63 37.52 42.58 37.52 42.58 40.04 40.05 40.04 40.05 42.57 29.95 42.57 29.95 40.04 27.42 40.04 27.42 37.52 22.37 37.52 22.37 42.57 24.9 42.57 24.9 45.09"/>
</svg>