<svg xmlns="http://www.w3.org/2000/svg" viewBox="0 0 70 70">
  <rect fill="currentColor" x="24.9" y="27" width="5.05" height="5.05"/>
  <rect fill="currentColor" x="40.05" y="27" width="5.05" height="5.05"/>
  <path fill="currentColor" d="M55.2,19.85h-2.53v-2.53h-2.53v-2.53h-2.53v-2.53h-25.25v2.53h-2.53v2.53h-2.53v2.53h-2.53v2.53h-2.53v25.25h2.53v2.53h2.53v2.53h2.53v2.53h2.53v2.53h25.25v-2.53h2.53v-2.53h2.53v-2.53h2.53v-2.53h2.53v-25.25h-2.53v-2.53ZM47.63,47.63v2.53h-2.53v2.53h-20.2v-2.53h-2.53v-2.53h-2.53v-2.53h-2.53v-20.2h2.53v-2.53h2.53v-2.53h2.53v-2.53h20.2v2.53h2.53v2.53h2.53v2.53h2.53v20.2h-2.53v2.53h-2.53Z"/>
  <rect fill="currentColor" x="24.9" y="41.52" width="20.2" height="5.05"/>
</svg>