<svg xmlns="http://www.w3.org/2000/svg" viewBox="0 0 70 70">
  <path fill="currentColor" d="M17.32,52.68h5.05v-5.05h5.05v5.05h5.05v5.05h5.05v-5.05h5.05v-5.05h5.05v5.05h5.05v5.05h5.05V22.37h-5.05v-5.05h-5.05v-5.05h-25.25v5.05h-5.05v5.05h-5.05v35.36h5.05v-5.05ZM52.68,27.42v10.1h-5.05v5.05h-5.05v-5.05h-5.05v-10.1h5.05v-5.05h5.05v5.05h5.05ZM17.32,27.42h5.05v-5.05h5.05v5.05h5.05v10.1h-5.05v5.05h-5.05v-5.05h-5.05v-10.1Z"/>
  <rect fill="currentColor" x="22.37" y="27.42" width="5.05" height="5.05"/>
  <rect fill="currentColor" x="42.58" y="27.42" width="5.05" height="5.05"/>
</svg>