<svg xmlns="http://www.w3.org/2000/svg" viewBox="0 0 70 70">
  <rect fill="currentColor" x="32.47" y="24.9" width="2.53" height="2.53"/>
  <path fill="currentColor" d="M55.2,22.37v-2.53h-2.53v-2.53H17.32v2.53h-2.53v2.53h-2.53v25.25h2.53v2.53h2.53v2.53h35.36v-2.53h2.53v-2.53h2.53v-25.25h-2.53ZM37.53,47.63h-17.68v-2.53h-2.53v-10.1h15.15v2.53h-2.53v5.05h2.53v-2.53h2.53v-2.53h2.53v10.1ZM37.53,27.42h-2.53v2.53h2.53v2.53h-2.53v-2.53h-2.53v2.53h-15.15v-7.58h2.53v-2.53h17.68v5.05ZM52.68,45.1h-2.53v2.53h-10.1v-7.58h2.53v-2.53h-2.53v-2.53h2.53v2.53h2.53v-2.53h7.58v10.1ZM52.68,32.47h-7.58v-2.53h2.53v-5.05h-2.53v2.53h-2.53v2.53h-2.53v-7.58h10.1v2.53h2.53v7.58Z"/>
  <rect fill="currentColor" x="45.1" y="37.53" width="2.53" height="2.53"/>
  <rect fill="currentColor" x="42.58" y="40.05" width="2.53" height="2.53"/>
  <rect fill="currentColor" x="29.95" y="27.42" width="2.53" height="2.53"/>
</svg>