<svg xmlns="http://www.w3.org/2000/svg" viewBox="0 0 70 70">
  <path fill="currentColor" d="M55.2,32.47v-2.53h-2.53v-2.53h-2.53v-2.53h-2.53v-2.53h-2.53v-2.53h-2.53v-2.53h-2.53v-2.53h-2.53v-2.53h-5.05v2.53h-2.53v2.53h-2.53v2.53h-2.53v2.53h-2.53v2.53h-2.53v2.53h-2.53v2.53h-2.53v2.53h-2.53v5.05h5.05v17.68h2.53v2.53h10.1v-2.53h2.53v-15.15h5.05v15.15h2.53v2.53h10.1v-2.53h2.53v-17.68h5.05v-5.05h-2.53ZM50.15,35h-2.53v17.68h-5.05v-12.63h-2.53v-2.53h-2.53v-2.53h-5.05v2.53h-2.53v2.53h-2.53v12.63h-5.05v-17.68h-2.53v-2.53h2.53v-2.53h2.53v-2.53h2.53v-2.53h2.53v-2.53h2.53v-2.53h5.05v2.53h2.53v2.53h2.53v2.53h2.53v2.53h2.53v2.53h2.53v2.53Z"/>
</svg>