<svg xmlns="http://www.w3.org/2000/svg" viewBox="0 0 70 70">
  <rect fill="currentColor" x="13.96" y="13.27" width="3.41" height="3.41"/>
  <rect fill="currentColor" x="17.37" y="16.68" width="3.41" height="3.41"/>
  <rect fill="currentColor" x="17.37" y="50.75" width="3.41" height="3.41"/>
  <rect fill="currentColor" x="51.44" y="50.75" width="3.41" height="3.41"/>
  <rect fill="currentColor" x="51.44" y="16.68" width="3.41" height="3.41"/>
  <polygon fill="currentColor" points="44.63 26.89 44.63 23.48 48.03 23.48 48.03 13.27 44.63 13.27 44.63 16.68 41.22 16.68 41.22 20.08 37.81 20.08 37.81 30.3 41.22 30.3 41.22 26.89 44.63 26.89"/>
  <polygon fill="currentColor" points="27.59 26.89 31 26.89 31 30.3 34.41 30.3 34.41 20.08 31 20.08 31 16.68 27.59 16.68 27.59 13.27 24.18 13.27 24.18 23.48 27.59 23.48 27.59 26.89"/>
  <rect fill="currentColor" x="54.84" y="13.27" width="3.41" height="3.41"/>
  <polygon fill="currentColor" points="48.03 26.89 44.63 26.89 44.63 30.3 41.22 30.3 41.22 33.71 51.44 33.71 51.44 30.3 54.84 30.3 54.84 26.89 58.25 26.89 58.25 23.48 48.03 23.48 48.03 26.89"/>
  <polygon fill="currentColor" points="17.37 30.3 20.77 30.3 20.77 33.71 31 33.71 31 30.3 27.59 30.3 27.59 26.89 24.18 26.89 24.18 23.48 13.96 23.48 13.96 26.89 17.37 26.89 17.37 30.3"/>
  <polygon fill="currentColor" points="31 43.93 27.59 43.93 27.59 47.34 24.18 47.34 24.18 57.56 27.59 57.56 27.59 54.15 31 54.15 31 50.75 34.41 50.75 34.41 40.52 31 40.52 31 43.93"/>
  <polygon fill="currentColor" points="27.59 43.93 27.59 40.52 31 40.52 31 37.11 20.77 37.11 20.77 40.52 17.37 40.52 17.37 43.93 13.96 43.93 13.96 47.34 24.18 47.34 24.18 43.93 27.59 43.93"/>
  <rect fill="currentColor" x="13.96" y="54.15" width="3.41" height="3.41"/>
  <polygon fill="currentColor" points="54.84 40.52 51.44 40.52 51.44 37.11 41.22 37.11 41.22 40.52 44.63 40.52 44.63 43.93 48.03 43.93 48.03 47.34 58.25 47.34 58.25 43.93 54.84 43.93 54.84 40.52"/>
  <polygon fill="currentColor" points="44.63 43.93 41.22 43.93 41.22 40.52 37.81 40.52 37.81 50.75 41.22 50.75 41.22 54.15 44.63 54.15 44.63 57.56 48.03 57.56 48.03 47.34 44.63 47.34 44.63 43.93"/>
  <rect fill="currentColor" x="34.41" y="33.71" width="3.41" height="3.41"/>
  <rect fill="currentColor" x="54.84" y="54.15" width="3.41" height="3.41"/>
</svg>