<svg xmlns="http://www.w3.org/2000/svg" viewBox="0 0 70 70">
  <polygon fill="currentColor" points="35 31.75 35 28.51 38.25 28.51 38.25 25.26 41.49 25.26 41.49 22.01 44.74 22.01 44.74 18.77 47.99 18.77 47.99 12.27 41.49 12.27 41.49 15.52 38.25 15.52 38.25 18.77 35 18.77 35 22.01 31.75 22.01 31.75 25.26 28.51 25.26 28.51 28.51 25.26 28.51 25.26 31.75 22.01 31.75 22.01 38.25 25.26 38.25 25.26 41.49 28.51 41.49 28.51 44.74 31.75 44.74 31.75 47.99 35 47.99 35 51.23 38.25 51.23 38.25 54.48 41.49 54.48 41.49 57.73 47.99 57.73 47.99 51.23 44.74 51.23 44.74 47.99 41.49 47.99 41.49 44.74 38.25 44.74 38.25 41.49 35 41.49 35 38.25 31.75 38.25 31.75 31.75 35 31.75"/>
</svg>