<svg xmlns="http://www.w3.org/2000/svg" viewBox="0 0 70 70">
  <path fill="currentColor" d="M57.19,30.26h-2.06s0-2.07,0-2.07h-4.12s0-12.36,0-12.36h-1.33s0,0,0,0h-.72s.02-.76.02-.76l-.03.03v-1.33s-1.02,0-1.02,0c-.49,0-.97,0-1.45,0h0c-.23,0-.38.1-.46.18-.08.08-.18.23-.18.47,0,.23,0,.45,0,.68h0s0,.73,0,.73h-.73s0,0,0,0h-1.33v1.37s0,0,0,0v.69s-.79,0-.79,0h.01s-1.28.01-1.28.01v1.47s0,0,0,0v.59s-.91,0-.91,0h0s-3.22,0-3.22,0v1.27s0,0,0,0v.79s-.68,0-.68,0h0s-3.44,0-3.44,0v1.4s0,0,0,0v.66s-.82,0-.82,0h0s-19.11,0-19.11,0c-.05,0-.1,0-.15,0l-.54.03v1.27s0,0,0,0v.76s-.71,0-.71,0h0s-1.35,0-1.35,0v15.47h1.39s0,0,0,0h.66s0,.81,0,.81h0s0,1.26,0,1.26h4.12s0,6.19,0,6.19h2.07s0,6.17,0,6.17h1.18s0,0,0,0h.88s0,.61,0,.61v1.44h7.22v-1.15s0,0,0,0v-.91s.25,0,.25,0c.36,0,.73,0,1.09,0,.08,0,.34,0,.53-.19.2-.2.2-.45.2-.53,0-.9,0-1.81,0-2.71v-1.03c0-.05,0-.1,0-.16l-.03-.55h-1.32s0,0,0,0h-.71s0-.76,0-.76h0c0-.92,0-1.85,0-2.78,0-.12-.03-.2-.05-.24l-.12-.34h-1.21s0,0,0,0h-.68s0-.79,0-.79h0s0-2.29,0-2.29h5.55c.27,0,.54,0,.81,0h0s.85,0,.85,0v.64s0,0,0,0v1.43h3.28s0,0,0,0h.85s0,.64,0,.64h0s0,1.42,0,1.42h3.19s0,0,0,0h.94s0,.57,0,.57h0s0,1.48,0,1.48h1.33s0,0,0,0h.73s0,.73,0,.73h0s0,1.32,0,1.32h1.24s0,0,0,0h.82s0,.66,0,.66h0s0,1.39,0,1.39h3.1v-1.35s.04.04.04.04l-.02-.75h.74s0,0,0,0h1.32v-12.37s4.11,0,4.11,0v-.67c0-.1,0-.19,0-.29v-1.09s2.05,0,2.05,0v-7.23ZM54.09,36.44h-3.06s0-5.12,0-5.12h3.06s0,5.12,0,5.12ZM46.89,50.22v-1.4h-1.33s0,0,0,0h-.74s0-.73,0-.73v-1.33h-1.12s0,0,0,0h-.94s0-.48,0-.48v-1.43s-.37-.11-.37-.11c-.04-.01-.11-.04-.22-.04-.9,0-1.79,0-2.69,0h0s-.85,0-.85,0v-.26c0-.38,0-.76,0-1.14,0-.08,0-.31-.18-.49-.08-.08-.23-.18-.47-.18h0c-.88,0-1.75,0-2.63,0h0s-.85,0-.85,0v-.63s0-1.42,0-1.42h-4.12s0-2.66,0-2.66c0-3.58,0-7.15,0-10.74.84,0,1.68,0,2.52,0h1.6s0-1.41,0-1.41h0s0-.61,0-.61l.94.07-.12-.11h2.71c.08,0,.15-.02.19-.03l.4-.1v-1.15s0,0,0,0v-.79s.37,0,.37,0h3.16c.07,0,.13-.01.17-.02l.41-.08v-1.36s0,0,0,0v-.59s.9,0,.9,0h1.15v-1.37s0,0,0,0v-.69c.47,0,.95,0,1.42,0,.23,0,.38-.09.46-.18.18-.18.18-.41.18-.48,0-.23,0-.45,0-.68h0s0-.73,0-.73h.29s0,0,0,0h.73s0,34.01,0,34.01h-.2s0,0,0,0h-.82s0-.65,0-.65ZM25.24,47.79v.79s0,3.33,0,3.33h1.35s0,0,0,0h.71s0,.76,0,.76h0s0,1.42,0,1.42h0s0,.9,0,.9h-.59s0,0,0,0h-3.68s0,0,0,0h-.88s0-.61,0-.61v-5.57h-2.05s0-5.14,0-5.14h3.06s0,4.11,0,4.11h1.39s0,0,0,0h.68ZM13.91,40.57v-.81s0-.21,0-.21h2.01s.04-.53.04-.53c0-.06,0-.11,0-.15v-.53c0-.4,0-.8,0-1.19,0-.21-.06-.38-.19-.51-.19-.19-.44-.19-.51-.19-.41,0-.82,0-1.22,0h-.13v-1.02s.04,0,.04,0c.44,0,.88,0,1.32,0,.08,0,.32,0,.51-.19.13-.13.19-.3.19-.51,0-.4,0-.81,0-1.21v-.51s0-.08,0-.13l-.03-.54h-2.01s0-1.02,0-1.02h2.05s0-1.21,0-1.21c0-.4,0-.79,0-1.19,0-.22-.06-.4-.19-.53-.2-.2-.45-.19-.53-.19-.4,0-.8,0-1.2,0h-.15v-.26s0,0,0,0v-.76s.2,0,.2,0h2.86s0,13.4,0,13.4h-2.4s0,0,0,0h-.66ZM27.28,27.19v13.36s-7.19,0-7.19,0v-13.36s7.19,0,7.19,0Z"/>
  <rect fill="currentColor" x="58.23" y="32.33" width="7.21" height="3.08"/>
  <path fill="currentColor" d="M59.26,27.93h0s0-.76,0-.76h.4c.33,0,.66,0,.99,0,.25,0,.4-.1.48-.18.19-.18.18-.42.18-.5,0-.39,0-.78,0-1.17v-.63c0-.07-.01-.12-.02-.17l-.06-.45h-3.01v1.29s0,0,0,0v.76s-.71,0-.71,0h0s-1.35,0-1.35,0v3.08h3.09v-1.29Z"/>
  <polygon fill="currentColor" points="60.05 40.57 59.27 40.57 59.27 39.88 59.26 39.89 59.26 38.52 56.17 38.52 56.17 41.6 57.44 41.6 57.44 41.61 58.23 41.61 58.23 42.29 58.23 42.29 58.23 43.65 61.31 43.65 61.31 40.57 60.05 40.57 60.05 40.57"/>
</svg>