<svg xmlns="http://www.w3.org/2000/svg" viewBox="0 0 70 70">
  <polygon fill="currentColor" points="48.14 42.76 46.26 42.75 46.27 40.87 44.39 40.87 44.4 38.99 40.64 38.98 40.63 42.74 42.51 42.74 42.51 44.62 44.38 44.62 44.38 46.5 46.25 46.5 46.25 48.38 44.37 48.37 44.37 50.25 25.61 50.2 25.61 48.33 23.74 48.32 23.74 46.45 25.62 46.45 25.62 44.57 27.5 44.58 27.5 42.7 29.38 42.71 29.39 38.96 25.64 38.95 25.63 40.82 23.76 40.82 23.75 42.69 21.88 42.69 21.87 44.57 20 44.56 19.98 50.19 21.86 50.19 21.85 52.07 23.73 52.07 23.72 53.95 46.23 54.01 46.24 52.13 48.11 52.13 48.12 50.26 49.99 50.26 50.01 44.64 48.13 44.63 48.14 42.76"/>
  <path fill="currentColor" d="M29.39,37.08h1.88s0,1.88,0,1.88l7.5.02v-1.88s1.88,0,1.88,0v-1.88s1.88,0,1.88,0l.03-11.26h-1.88s0-1.88,0-1.88h-1.88s0-1.88,0-1.88l-7.5-.02v1.88s-1.88,0-1.88,0v1.88s-1.88,0-1.88,0l-.03,11.26h1.88s0,1.88,0,1.88ZM33.18,23.96h3.75s0,1.89,0,1.89h1.88s-.02,7.51-.02,7.51h-1.88s0,1.87,0,1.87h-3.75s0-1.89,0-1.89h-1.88s.02-7.51.02-7.51h1.88s0-1.87,0-1.87Z"/>
  <polygon fill="currentColor" points="47.07 34.05 48.58 34.06 48.58 31.05 45.57 31.04 45.57 32.54 44.06 32.54 44.06 35.55 47.07 35.56 47.07 34.05"/>
  <path fill="currentColor" d="M56.11,31.06v-1.51s1.51,0,1.51,0v-1.51s1.51,0,1.51,0l.02-9.03h-1.51s0-1.51,0-1.51h-1.51s0-1.51,0-1.51l-6.02-.02v1.51s-1.51,0-1.51,0v1.51s-1.51,0-1.51,0l-.02,9.03h1.51s0,1.51,0,1.51h1.51s0,1.51,0,1.51l6.02.02ZM51.63,19.01h3.01s0,1.51,0,1.51h1.51s-.01,6.03-.01,6.03h-1.51s0,1.5,0,1.5h-3.01s0-1.51,0-1.51h-1.51s.01-6.03.01-6.03h1.51s0-1.5,0-1.5Z"/>
  <polygon fill="currentColor" points="65.13 35.6 63.63 35.6 63.63 34.09 62.13 34.09 62.13 32.58 60.62 32.58 60.63 31.08 57.62 31.07 57.61 34.08 59.11 34.08 59.11 35.59 60.62 35.59 60.61 37.1 62.12 37.1 62.11 38.61 60.61 38.6 60.61 39.4 50.12 39.37 50.12 42.38 62.13 42.41 62.14 41.62 63.61 41.62 63.62 40.12 65.12 40.12 65.13 35.6"/>
  <polygon fill="currentColor" points="9.39 39.4 9.39 38.6 7.89 38.61 7.88 37.1 9.39 37.1 9.38 35.59 10.89 35.59 10.88 34.08 12.39 34.08 12.38 31.07 9.37 31.08 9.38 32.58 7.87 32.58 7.87 34.09 6.37 34.09 6.37 35.6 4.87 35.6 4.88 40.12 6.38 40.12 6.39 41.62 7.86 41.62 7.87 42.41 19.88 42.38 19.88 39.37 9.39 39.4"/>
  <polygon fill="currentColor" points="21.42 31.05 21.42 34.06 22.93 34.05 22.93 35.56 25.94 35.55 25.94 32.54 24.43 32.54 24.43 31.04 21.42 31.05"/>
  <path fill="currentColor" d="M21.41,29.54v-1.51s1.5,0,1.5,0l-.02-9.03h-1.51s0-1.5,0-1.5h-1.51s0-1.5,0-1.5l-6.02.02v1.51s-1.5,0-1.5,0v1.51s-1.5,0-1.5,0l.02,9.03h1.51s0,1.5,0,1.5h1.51s0,1.5,0,1.5l6.02-.02v-1.51s1.5,0,1.5,0ZM15.38,26.54h-1.51s-.02-6.02-.02-6.02h1.51s0-1.51,0-1.51h3.01s0,1.5,0,1.5h1.51s.02,6.02.02,6.02h-1.51s0,1.51,0,1.51h-3.01s0-1.5,0-1.5Z"/>
</svg>