<svg xmlns="http://www.w3.org/2000/svg" viewBox="0 0 70 70">
  <polygon fill="currentColor" points="19.85 42.58 17.32 42.58 17.32 45.1 14.8 45.1 14.8 52.68 17.32 52.68 17.32 55.2 19.85 55.2 19.85 57.73 50.15 57.73 50.15 55.2 52.68 55.2 52.68 52.68 55.2 52.68 55.2 45.1 52.68 45.1 52.68 42.58 50.15 42.58 50.15 40.05 47.63 40.05 47.63 37.53 42.58 37.53 42.58 42.58 45.1 42.58 45.1 45.1 47.63 45.1 47.63 47.63 50.15 47.63 50.15 50.15 47.63 50.15 47.63 52.68 22.37 52.68 22.37 50.15 19.85 50.15 19.85 47.63 22.37 47.63 22.37 45.1 24.9 45.1 24.9 42.58 27.42 42.58 27.42 37.53 22.37 37.53 22.37 40.05 19.85 40.05 19.85 42.58"/>
  <path fill="currentColor" d="M40.05,37.53v-2.53h2.53v-2.53h2.53v-15.15h-2.53v-2.53h-2.53v-2.53h-10.1v2.53h-2.53v2.53h-2.53v15.15h2.53v2.53h2.53v2.53h10.1ZM32.47,17.32h5.05v2.53h2.53v10.1h-2.53v2.53h-5.05v-2.53h-2.53v-10.1h2.53v-2.53Z"/>
</svg>