<svg xmlns="http://www.w3.org/2000/svg" viewBox="0 0 70 70">
  <path fill="currentColor" d="M33.72,48.09c-.03-1.38.12-2.71.31-4.09.01-.09.03-.18.05-.27H15.82v-2.18h-2.18v-2.18h2.18v-2.18h2.18v-2.18h2.18v-4.37h-4.37v2.18h-2.18v2.18h-2.18v2.18h-2.18v6.55h2.18v2.18h2.18v2.18h20.08Z"/>
  <path fill="currentColor" d="M31.11,30.61v-2.18h2.18v-2.18h2.18v-13.11h-2.18v-2.18h-2.18v-2.18h-8.74v2.18h-2.18v2.18h-2.18v13.11h2.18v2.18h2.18v2.18h8.74ZM24.56,13.14h4.37v2.18h2.18v8.74h-2.18v2.18h-4.37v-2.18h-2.18v-8.74h2.18v-2.18Z"/>
  <path fill="currentColor" d="M36.92,30.61h-3.4v30.62h27.22v-23.81h-1.7v-1.7h-1.7v-1.7h-1.7v-1.7h-1.7v-1.7h-17.01ZM57.33,57.83h-20.41v-23.81h10.21v10.21h10.21v13.61ZM57.33,40.82h-6.8v-6.8h1.7v1.7h1.7v1.7h1.7v1.7h1.7v1.7Z"/>
  <rect fill="currentColor" x="40.32" y="47.62" width="13.61" height="1.7"/>
  <rect fill="currentColor" x="40.32" y="42.52" width="3.4" height="1.7"/>
  <rect fill="currentColor" x="40.32" y="37.42" width="3.4" height="1.7"/>
  <rect fill="currentColor" x="40.32" y="52.73" width="13.61" height="1.7"/>
</svg>