<svg xmlns="http://www.w3.org/2000/svg" viewBox="0 0 70 70">
  <path fill="currentColor" d="M25,57.5h22.5v-2.5h2.5V15h-2.5v-2.5h-25v2.5h-2.5v40h2.5v2.5h2.5ZM25,52.5v-7.5h20v7.5h-20ZM45,17.5v25h-20v-25h20Z"/>
  <rect fill="currentColor" x="33.75" y="47.5" width="2.5" height="2.5"/>
  <polygon fill="currentColor" points="37.49 26.78 36.25 26.78 36.25 28.02 35 28.02 35 29.27 33.75 29.27 33.75 30.52 32.51 30.52 32.51 29.27 30.02 29.27 30.02 31.76 31.26 31.76 31.26 33.01 32.51 33.01 32.51 34.25 33.75 34.25 33.75 33.01 35 33.01 35 31.76 36.25 31.76 36.25 30.52 37.49 30.52 37.49 29.27 38.74 29.27 38.74 28.02 39.98 28.02 39.98 25.53 37.49 25.53 37.49 26.78"/>
</svg>