<svg xmlns="http://www.w3.org/2000/svg" viewBox="0 0 70 70">
  <polygon fill="currentColor" points="49.02 12.56 20.98 12.56 20.98 18.17 9.76 18.17 9.76 23.78 9.76 29.39 15.37 29.39 15.37 23.78 20.98 23.78 20.98 29.39 15.37 29.39 15.37 35 26.59 35 26.59 40.61 32.2 40.61 32.2 46.22 26.59 46.22 26.59 49.02 23.78 49.02 23.78 51.83 20.98 51.83 20.98 57.44 49.02 57.44 49.02 51.83 46.22 51.83 46.22 49.02 43.41 49.02 43.41 46.22 37.8 46.22 37.8 40.61 43.41 40.61 43.41 35 54.63 35 54.63 29.39 49.02 29.39 49.02 23.78 54.63 23.78 54.63 29.39 60.24 29.39 60.24 23.78 60.24 18.17 49.02 18.17 49.02 12.56"/>
</svg>