<svg xmlns="http://www.w3.org/2000/svg" viewBox="0 0 70 70">
  <polyline fill="currentColor" points="12.27 29.95 12.27 32.47 14.8 32.47 14.8 35 17.32 35 17.32 37.53 19.85 37.53 19.85 40.05 22.37 40.05 22.37 42.58 22.37 45.1 19.85 45.1 19.85 47.63 19.85 50.15 17.32 50.15 17.32 52.68 17.32 55.2 17.32 57.73 19.85 57.73 22.37 57.73 24.9 57.73 24.9 55.2 27.42 55.2 27.42 52.68 29.95 52.68 32.47 52.68 32.47 50.15 35 50.15 37.53 50.15 37.53 52.68 40.05 52.68 42.58 52.68 42.58 55.2 45.1 55.2 45.1 57.73 47.63 57.73 50.15 57.73 52.68 57.73 52.68 55.2 52.68 52.68 52.68 50.15 50.15 50.15 50.15 47.63 50.15 45.1 47.63 45.1 47.63 42.58 47.63 40.05 50.15 40.05 50.15 37.53 52.68 37.53 52.68 35 55.2 35 55.2 32.47 57.73 32.47 57.73 29.95 57.73 27.42 55.2 27.42 52.68 27.42 50.15 27.42 47.63 27.42 45.1 27.42 42.58 27.42 42.58 24.9 42.58 22.37 40.05 22.37 40.05 19.85 40.05 17.32 37.53 17.32 37.53 14.8 37.53 12.27 35 12.27 32.47 12.27 32.47 14.8 32.47 17.32 29.95 17.32 29.95 19.85 29.95 22.37 27.42 22.37 27.42 24.9 27.42 27.42 24.9 27.42 22.37 27.42 19.85 27.42 17.32 27.42 14.8 27.42 12.27 27.42 12.27 29.95"/>
</svg>