<svg xmlns="http://www.w3.org/2000/svg" viewBox="0 0 70 70">
  <path fill="currentColor" d="M52.68,27.42h-10.1v-5.05h-2.53v-5.05h-2.53v-5.05h-5.05v5.05h-2.53v5.05h-2.53v5.05h-15.15v5.05h2.53v2.53h2.53v2.53h2.53v2.53h2.53v5.05h-2.53v5.05h-2.53v7.58h5.05v-2.53h5.05v-2.53h5.05v-2.53h5.05v2.53h5.05v2.53h5.05v2.53h5.05v-7.58h-2.53v-5.05h-2.53v-5.05h2.53v-2.53h2.53v-2.53h2.53v-2.53h2.53v-5.05h-5.05ZM47.63,35h-2.53v2.53h-2.53v10.1h-2.53v-2.53h-2.53v-2.53h-5.05v2.53h-2.53v2.53h-2.53v-10.1h-2.53v-2.53h-2.53v-2.53h7.58v-2.53h2.53v-5.05h5.05v5.05h2.53v2.53h7.58v2.53Z"/>
</svg>