<svg xmlns="http://www.w3.org/2000/svg" viewBox="0 0 70 70">
  <path fill="currentColor" d="M50.83,23.38v-5.56h-2.83v-2.84h-2.76v-2.77h-2.77v-2.72h-14.72v2.73h-2.81v2.8h-2.72v2.82h-2.87v5.55h-2.79v2.29c0,1.18,0,2.36,0,3.55,0,1.02,0,2.05,0,3.07v1.68s0,.09,0,.14v.48l-.16.27.16.12v.32h2.8s0,0,0,0c0,.8,0,1.6,0,2.4v.39h2.76,0s.02,0,.02,0v5.63h2.83v2.79h.39c.17,0,.34,0,.5,0,.16,0,.32,0,.48,0,.21,0,.42,0,.62,0,.27,0,.54-.01.81-.02,0,3.07,0,6.14,0,9.22v2h2.79s0,0,0,0v2.77h9.07v-2.77h0s2.76,0,2.76,0l.02-.37s0-.07,0-.1c0-.07,0-.13,0-.2,0-3.19,0-6.9,0-10.56.8,0,1.6,0,2.41,0h.39v-.72c0-.69,0-1.37,0-2.06h2.82v-.54c0-.1,0-.19,0-.28v-4.3s.02,0,.02,0v-.5h2.78v-2.75h.15c.41,0,.8,0,1.2,0,.08,0,.15,0,.23-.02h1.18v-11.96h-2.78ZM38.86,56.97h0s-1.37,0-1.37,0c-1.64,0-3.28,0-4.92,0-.37,0-.75,0-1.12,0-.04,0-.07,0-.11,0h0s0,0,0,0v-1.99h7.54v1.99ZM38.83,49.35v2.02h-7.49v-2.02h7.49ZM25.77,18.57v-2.45c0-.13,0-.25,0-.34.08,0,.21,0,.33,0h2.43v-2.73h13.14v2.74h2.78v2.75h2.84v5.64h2.74v10.38h-2.74v2.29h0s0,.49,0,.49h-.6,0s-2.23,0-2.23,0v1.68c0,1.31,0,2.62,0,3.93h-.32,0c-.69,0-1.39,0-2.1,0h-.39v.39c0,.17,0,.34,0,.5,0,.38,0,.73,0,1.09h0c0,.1,0,.21,0,.31l-.24-.23.14.74c-1.62,0-3.15,0-4.64,0v-7.63h2.77v-.84c0-.68,0-1.33,0-1.99h2.79v-2.73h2.79v-6.43h-3.61v5.56h-2.75v2.81h-2.82v2.82h-1.45,0s-.55,0-.55,0v-.52h0s0-2.29,0-2.29h-2.78c0-.79,0-1.57,0-2.37v-.39h-.39c-.56,0-1.1,0-1.63,0h0s-.78,0-.78,0v-5.61h-3.58v.03h-.01v6.36h2.78c0,.31,0,.62,0,.92v1.85h2.8v.41c0,.59,0,1.18,0,1.76,0,.02,0,.03,0,.05v.59h.04v.02h.36c.2,0,.41,0,.61,0,.52,0,1.01,0,1.51,0,.1,0,.2,0,.28-.01h0s0,.01,0,.01v7.63c-1.4,0-2.8,0-4.2,0l.05-.05h-.52s.09-.65.09-.65l-.19.18c0-.11,0-.22,0-.33h0c0-.35,0-.7,0-1.07,0-.16,0-.32,0-.49v-.39h-2.81v-5.62h-2.82s0,0,0,0v-2.79s-.39,0-.39,0c-.62,0-1.24,0-1.85,0h0s-.55,0-.55,0v-10.37h2.77v-5.6h2.86Z"/>
</svg>