<svg xmlns="http://www.w3.org/2000/svg" viewBox="0 0 70 70">
  <polygon fill="currentColor" points="44.31 47.41 50.51 47.41 50.51 53.61 13.28 53.61 13.28 28.8 50.51 28.8 50.51 35 44.31 35 44.31 38.1 59.82 38.1 59.82 35 56.72 35 56.72 25.69 53.61 25.69 53.61 22.59 50.51 22.59 50.51 16.39 47.41 16.39 47.41 22.59 22.59 22.59 22.59 19.49 16.39 19.49 16.39 22.59 13.28 22.59 10.18 22.59 10.18 25.69 7.08 25.69 7.08 56.72 10.18 56.72 10.18 59.82 13.28 59.82 50.51 59.82 53.61 59.82 53.61 56.72 56.72 56.72 56.72 47.41 59.82 47.41 59.82 44.31 44.31 44.31 44.31 47.41"/>
  <rect fill="currentColor" x="41.2" y="38.1" width="3.1" height="6.2"/>
  <rect fill="currentColor" x="45.86" y="39.65" width="3.1" height="3.1"/>
  <rect fill="currentColor" x="22.59" y="16.39" width="6.2" height="3.1"/>
  <rect fill="currentColor" x="28.8" y="13.28" width="6.2" height="3.1"/>
  <polygon fill="currentColor" points="44.31 13.28 44.31 16.39 47.41 16.39 47.41 10.18 44.31 10.18 41.2 10.18 35 10.18 35 13.28 41.2 13.28 44.31 13.28"/>
  <rect fill="currentColor" x="38.1" y="16.39" width="3.1" height="3.1"/>
  <rect fill="currentColor" x="59.82" y="38.1" width="3.1" height="6.2"/>
</svg>