<svg xmlns="http://www.w3.org/2000/svg" viewBox="0 0 70 70">
  <path fill="currentColor" d="M55.2,22.37v-2.53h-2.53v-2.53h-2.53v-2.53h-2.53v-2.53h-25.25v2.53h-2.53v2.53h-2.53v2.53h-2.53v2.53h-2.53v25.25h2.53v2.53h2.53v2.53h2.53v2.53h2.53v2.53h25.25v-2.53h2.53v-2.53h2.53v-2.53h2.53v-2.53h2.53v-25.25h-2.53ZM47.63,47.63v2.53h-2.53v2.53h-20.2v-2.53h-2.53v-2.53h-2.53v-2.53h-2.53v-20.2h2.53v-2.53h2.53v-2.53h2.53v-2.53h20.2v2.53h2.53v2.53h2.53v2.53h2.53v20.2h-2.53v2.53h-2.53Z"/>
  <polygon fill="currentColor" points="32.47 22.37 27.42 22.37 27.42 42.58 32.47 42.58 47.63 42.58 47.63 37.53 32.47 37.53 32.47 22.37"/>
</svg>